{
    "asset" : {
        "generator" : "Khronos glTF Blender I/O v3.3.32",
        "version" : "2.0"
    },
    "extensionsUsed" : [
        "KHR_materials_specular",
        "KHR_materials_ior"
    ],
    "scene" : 0,
    "scenes" : [
        {
            "name" : "Scene",
            "nodes" : [
                0
            ]
        }
    ],
    "nodes" : [
        {
            "mesh" : 0,
            "name" : "Piano"
        }
    ],
    "materials" : [
        {
            "doubleSided" : true,
            "name" : "Black_Keys",
            "pbrMetallicRoughness" : {
                "baseColorFactor" : [
                    0,
                    0,
                    0,
                    1
                ],
                "metallicFactor" : 0,
                "roughnessFactor" : 0.2884874939918518
            }
        },
        {
            "doubleSided" : true,
            "name" : "Piano_Body",
            "pbrMetallicRoughness" : {
                "baseColorFactor" : [
                    0.9646861553192139,
                    0.09084121882915497,
                    0.6104956269264221,
                    1
                ],
                "metallicFactor" : 0,
                "roughnessFactor" : 0.525658369064331
            }
        },
        {
            "doubleSided" : true,
            "name" : "Board",
            "pbrMetallicRoughness" : {
                "baseColorFactor" : [
                    0.18633300065994263,
                    0.055317122489213943,
                    0.024771690368652344,
                    1
                ],
                "metallicFactor" : 0,
                "roughnessFactor" : 0.525658369064331
            }
        },
        {
            "doubleSided" : true,
            "name" : "Red",
            "pbrMetallicRoughness" : {
                "baseColorFactor" : [
                    0.06662599742412567,
                    0.012285999953746796,
                    0.01298299990594387,
                    1
                ],
                "metallicFactor" : 0,
                "roughnessFactor" : 0.525658369064331
            }
        },
        {
            "doubleSided" : true,
            "name" : "Piano_Side",
            "pbrMetallicRoughness" : {
                "baseColorFactor" : [
                    0.9646861553192139,
                    0.09084121882915497,
                    0.6104956269264221,
                    1
                ],
                "metallicFactor" : 0,
                "roughnessFactor" : 0.525658369064331
            }
        },
        {
            "doubleSided" : true,
            "extensions" : {
                "KHR_materials_specular" : {
                    "specularColorFactor" : [
                        1.6599503018401929,
                        1.6599503018401929,
                        1.6599503018401929
                    ]
                },
                "KHR_materials_ior" : {
                    "ior" : 1.4500000476837158
                }
            },
            "name" : "Playe",
            "pbrMetallicRoughness" : {
                "baseColorFactor" : [
                    0.7230550050735474,
                    0.36131399869918823,
                    0,
                    1
                ],
                "metallicFactor" : 0.20000000298023224,
                "roughnessFactor" : 0.20000000298023224
            }
        },
        {
            "doubleSided" : true,
            "name" : "White_Keys",
            "pbrMetallicRoughness" : {
                "baseColorFactor" : [
                    0.8227859735488892,
                    0.791297972202301,
                    0.7011020183563232,
                    1
                ],
                "metallicFactor" : 0,
                "roughnessFactor" : 0.2884874939918518
            }
        },
        {
            "doubleSided" : true,
            "name" : "Piano_Legs",
            "pbrMetallicRoughness" : {
                "baseColorFactor" : [
                    0.9646861553192139,
                    0.09084121882915497,
                    0.6104956269264221,
                    1
                ],
                "metallicFactor" : 0,
                "roughnessFactor" : 0.525658369064331
            }
        }
    ],
    "meshes" : [
        {
            "name" : "Piano_Cube.013",
            "primitives" : [
                {
                    "attributes" : {
                        "POSITION" : 0,
                        "NORMAL" : 1,
                        "TEXCOORD_0" : 2
                    },
                    "indices" : 3,
                    "material" : 0
                },
                {
                    "attributes" : {
                        "POSITION" : 4,
                        "NORMAL" : 5,
                        "TEXCOORD_0" : 6
                    },
                    "indices" : 7,
                    "material" : 1
                },
                {
                    "attributes" : {
                        "POSITION" : 8,
                        "NORMAL" : 9,
                        "TEXCOORD_0" : 10
                    },
                    "indices" : 11,
                    "material" : 2
                },
                {
                    "attributes" : {
                        "POSITION" : 12,
                        "NORMAL" : 13,
                        "TEXCOORD_0" : 14
                    },
                    "indices" : 15,
                    "material" : 3
                },
                {
                    "attributes" : {
                        "POSITION" : 16,
                        "NORMAL" : 17,
                        "TEXCOORD_0" : 18
                    },
                    "indices" : 19,
                    "material" : 4
                },
                {
                    "attributes" : {
                        "POSITION" : 20,
                        "NORMAL" : 21,
                        "TEXCOORD_0" : 22
                    },
                    "indices" : 23,
                    "material" : 5
                },
                {
                    "attributes" : {
                        "POSITION" : 24,
                        "NORMAL" : 25,
                        "TEXCOORD_0" : 26
                    },
                    "indices" : 27,
                    "material" : 6
                },
                {
                    "attributes" : {
                        "POSITION" : 28,
                        "NORMAL" : 29,
                        "TEXCOORD_0" : 30
                    },
                    "indices" : 31,
                    "material" : 7
                }
            ]
        }
    ],
    "accessors" : [
        {
            "bufferView" : 0,
            "componentType" : 5126,
            "count" : 1344,
            "max" : [
                1.2528406381607056,
                0.7358890771865845,
                0.30667799711227417
            ],
            "min" : [
                -1.2407773733139038,
                0.6358890533447266,
                0.1168379932641983
            ],
            "type" : "VEC3"
        },
        {
            "bufferView" : 1,
            "componentType" : 5126,
            "count" : 1344,
            "type" : "VEC3"
        },
        {
            "bufferView" : 2,
            "componentType" : 5126,
            "count" : 1344,
            "type" : "VEC2"
        },
        {
            "bufferView" : 3,
            "componentType" : 5123,
            "count" : 1848,
            "type" : "SCALAR"
        },
        {
            "bufferView" : 4,
            "componentType" : 5126,
            "count" : 3958,
            "max" : [
                1.570151925086975,
                1.2052136659622192,
                1.2206413745880127
            ],
            "min" : [
                -1.5543673038482666,
                0.46194183826446533,
                -0.12869057059288025
            ],
            "type" : "VEC3"
        },
        {
            "bufferView" : 5,
            "componentType" : 5126,
            "count" : 3958,
            "type" : "VEC3"
        },
        {
            "bufferView" : 6,
            "componentType" : 5126,
            "count" : 3958,
            "type" : "VEC2"
        },
        {
            "bufferView" : 7,
            "componentType" : 5123,
            "count" : 9189,
            "type" : "SCALAR"
        },
        {
            "bufferView" : 8,
            "componentType" : 5126,
            "count" : 104,
            "max" : [
                1.4139260053634644,
                0.9197560548782349,
                1.1388084888458252
            ],
            "min" : [
                -1.3981413841247559,
                0.9197560548782349,
                0.3927847146987915
            ],
            "type" : "VEC3"
        },
        {
            "bufferView" : 9,
            "componentType" : 5126,
            "count" : 104,
            "type" : "VEC3"
        },
        {
            "bufferView" : 10,
            "componentType" : 5126,
            "count" : 104,
            "type" : "VEC2"
        },
        {
            "bufferView" : 11,
            "componentType" : 5123,
            "count" : 402,
            "type" : "SCALAR"
        },
        {
            "bufferView" : 12,
            "componentType" : 5126,
            "count" : 591,
            "max" : [
                1.4288047552108765,
                1.4052138328552246,
                1.1462478637695312
            ],
            "min" : [
                -1.4130200147628784,
                0.9197560548782349,
                0.23228466510772705
            ],
            "type" : "VEC3"
        },
        {
            "bufferView" : 13,
            "componentType" : 5126,
            "count" : 591,
            "type" : "VEC3"
        },
        {
            "bufferView" : 14,
            "componentType" : 5126,
            "count" : 591,
            "type" : "VEC2"
        },
        {
            "bufferView" : 15,
            "componentType" : 5123,
            "count" : 987,
            "type" : "SCALAR"
        },
        {
            "bufferView" : 16,
            "componentType" : 5126,
            "count" : 736,
            "max" : [
                1.573663353919983,
                2.1520750522613525,
                1.2206413745880127
            ],
            "min" : [
                -1.5547455549240112,
                0.5858891010284424,
                -0.03484584018588066
            ],
            "type" : "VEC3"
        },
        {
            "bufferView" : 17,
            "componentType" : 5126,
            "count" : 736,
            "type" : "VEC3"
        },
        {
            "bufferView" : 18,
            "componentType" : 5126,
            "count" : 736,
            "type" : "VEC2"
        },
        {
            "bufferView" : 19,
            "componentType" : 5123,
            "count" : 1056,
            "type" : "SCALAR"
        },
        {
            "bufferView" : 20,
            "componentType" : 5126,
            "count" : 96,
            "max" : [
                0.1566789746284485,
                1.0337830781936646,
                0.3538776636123657
            ],
            "min" : [
                -0.1408943235874176,
                0.9197560548782349,
                0.2992386221885681
            ],
            "type" : "VEC3"
        },
        {
            "bufferView" : 21,
            "componentType" : 5126,
            "count" : 96,
            "type" : "VEC3"
        },
        {
            "bufferView" : 22,
            "componentType" : 5126,
            "count" : 96,
            "type" : "VEC2"
        },
        {
            "bufferView" : 23,
            "componentType" : 5123,
            "count" : 132,
            "type" : "SCALAR"
        },
        {
            "bufferView" : 24,
            "componentType" : 5126,
            "count" : 1920,
            "max" : [
                1.3324244022369385,
                0.6858890056610107,
                0.30667799711227417
            ],
            "min" : [
                -1.3203623294830322,
                0.5858891010284424,
                -0.03484584018588066
            ],
            "type" : "VEC3"
        },
        {
            "bufferView" : 25,
            "componentType" : 5126,
            "count" : 1920,
            "type" : "VEC3"
        },
        {
            "bufferView" : 26,
            "componentType" : 5126,
            "count" : 1920,
            "type" : "VEC2"
        },
        {
            "bufferView" : 27,
            "componentType" : 5123,
            "count" : 2640,
            "type" : "SCALAR"
        },
        {
            "bufferView" : 28,
            "componentType" : 5126,
            "count" : 288,
            "max" : [
                1.1974451541900635,
                0.4619419574737549,
                1.161238670349121
            ],
            "min" : [
                -1.181660532951355,
                -1.1920928955078125e-07,
                -0.03432289883494377
            ],
            "type" : "VEC3"
        },
        {
            "bufferView" : 29,
            "componentType" : 5126,
            "count" : 288,
            "type" : "VEC3"
        },
        {
            "bufferView" : 30,
            "componentType" : 5126,
            "count" : 288,
            "type" : "VEC2"
        },
        {
            "bufferView" : 31,
            "componentType" : 5123,
            "count" : 396,
            "type" : "SCALAR"
        }
    ],
    "bufferViews" : [
        {
            "buffer" : 0,
            "byteLength" : 16128,
            "byteOffset" : 0,
            "target" : 34962
        },
        {
            "buffer" : 0,
            "byteLength" : 16128,
            "byteOffset" : 16128,
            "target" : 34962
        },
        {
            "buffer" : 0,
            "byteLength" : 10752,
            "byteOffset" : 32256,
            "target" : 34962
        },
        {
            "buffer" : 0,
            "byteLength" : 3696,
            "byteOffset" : 43008,
            "target" : 34963
        },
        {
            "buffer" : 0,
            "byteLength" : 47496,
            "byteOffset" : 46704,
            "target" : 34962
        },
        {
            "buffer" : 0,
            "byteLength" : 47496,
            "byteOffset" : 94200,
            "target" : 34962
        },
        {
            "buffer" : 0,
            "byteLength" : 31664,
            "byteOffset" : 141696,
            "target" : 34962
        },
        {
            "buffer" : 0,
            "byteLength" : 18378,
            "byteOffset" : 173360,
            "target" : 34963
        },
        {
            "buffer" : 0,
            "byteLength" : 1248,
            "byteOffset" : 191740,
            "target" : 34962
        },
        {
            "buffer" : 0,
            "byteLength" : 1248,
            "byteOffset" : 192988,
            "target" : 34962
        },
        {
            "buffer" : 0,
            "byteLength" : 832,
            "byteOffset" : 194236,
            "target" : 34962
        },
        {
            "buffer" : 0,
            "byteLength" : 804,
            "byteOffset" : 195068,
            "target" : 34963
        },
        {
            "buffer" : 0,
            "byteLength" : 7092,
            "byteOffset" : 195872,
            "target" : 34962
        },
        {
            "buffer" : 0,
            "byteLength" : 7092,
            "byteOffset" : 202964,
            "target" : 34962
        },
        {
            "buffer" : 0,
            "byteLength" : 4728,
            "byteOffset" : 210056,
            "target" : 34962
        },
        {
            "buffer" : 0,
            "byteLength" : 1974,
            "byteOffset" : 214784,
            "target" : 34963
        },
        {
            "buffer" : 0,
            "byteLength" : 8832,
            "byteOffset" : 216760,
            "target" : 34962
        },
        {
            "buffer" : 0,
            "byteLength" : 8832,
            "byteOffset" : 225592,
            "target" : 34962
        },
        {
            "buffer" : 0,
            "byteLength" : 5888,
            "byteOffset" : 234424,
            "target" : 34962
        },
        {
            "buffer" : 0,
            "byteLength" : 2112,
            "byteOffset" : 240312,
            "target" : 34963
        },
        {
            "buffer" : 0,
            "byteLength" : 1152,
            "byteOffset" : 242424,
            "target" : 34962
        },
        {
            "buffer" : 0,
            "byteLength" : 1152,
            "byteOffset" : 243576,
            "target" : 34962
        },
        {
            "buffer" : 0,
            "byteLength" : 768,
            "byteOffset" : 244728,
            "target" : 34962
        },
        {
            "buffer" : 0,
            "byteLength" : 264,
            "byteOffset" : 245496,
            "target" : 34963
        },
        {
            "buffer" : 0,
            "byteLength" : 23040,
            "byteOffset" : 245760,
            "target" : 34962
        },
        {
            "buffer" : 0,
            "byteLength" : 23040,
            "byteOffset" : 268800,
            "target" : 34962
        },
        {
            "buffer" : 0,
            "byteLength" : 15360,
            "byteOffset" : 291840,
            "target" : 34962
        },
        {
            "buffer" : 0,
            "byteLength" : 5280,
            "byteOffset" : 307200,
            "target" : 34963
        },
        {
            "buffer" : 0,
            "byteLength" : 3456,
            "byteOffset" : 312480,
            "target" : 34962
        },
        {
            "buffer" : 0,
            "byteLength" : 3456,
            "byteOffset" : 315936,
            "target" : 34962
        },
        {
            "buffer" : 0,
            "byteLength" : 2304,
            "byteOffset" : 319392,
            "target" : 34962
        },
        {
            "buffer" : 0,
            "byteLength" : 792,
            "byteOffset" : 321696,
            "target" : 34963
        }
    ],
    "buffers" : [
        {
            "byteLength" : 322488,
            "uri" : "data:application/octet-stream;base64,"
        }
    ]
}
